<mxfile host="app.diagrams.net" modified="2021-02-25T06:10:08.923Z" agent="5.0 (Windows)" etag="8O0Nf7isN8Jhm__KX4er" version="14.4.3" type="github">
  <diagram id="XdFM6GkCjEFkEd9IfFYZ" name="Page-1">
    <mxGraphModel dx="942" dy="583" grid="1" gridSize="10" guides="1" tooltips="1" connect="1" arrows="1" fold="1" page="1" pageScale="1" pageWidth="827" pageHeight="1169" math="0" shadow="0">
      <root>
        <mxCell id="0" />
        <mxCell id="1" parent="0" />
        <mxCell id="tKUG0jFUz1qlQvCySW64-4" value="" style="edgeStyle=orthogonalEdgeStyle;rounded=0;orthogonalLoop=1;jettySize=auto;html=1;" edge="1" parent="1" source="tKUG0jFUz1qlQvCySW64-1" target="tKUG0jFUz1qlQvCySW64-3">
          <mxGeometry relative="1" as="geometry" />
        </mxCell>
        <mxCell id="tKUG0jFUz1qlQvCySW64-1" value="频响函数" style="rounded=1;whiteSpace=wrap;html=1;" vertex="1" parent="1">
          <mxGeometry x="290" y="100" width="120" height="30" as="geometry" />
        </mxCell>
        <mxCell id="tKUG0jFUz1qlQvCySW64-15" style="edgeStyle=orthogonalEdgeStyle;rounded=0;orthogonalLoop=1;jettySize=auto;html=1;entryX=1;entryY=0.5;entryDx=0;entryDy=0;" edge="1" parent="1" source="tKUG0jFUz1qlQvCySW64-2" target="tKUG0jFUz1qlQvCySW64-8">
          <mxGeometry relative="1" as="geometry">
            <Array as="points">
              <mxPoint x="690" y="195" />
            </Array>
          </mxGeometry>
        </mxCell>
        <mxCell id="tKUG0jFUz1qlQvCySW64-2" value="时域/频域函数" style="rounded=1;whiteSpace=wrap;html=1;" vertex="1" parent="1">
          <mxGeometry x="630" y="100" width="120" height="30" as="geometry" />
        </mxCell>
        <mxCell id="tKUG0jFUz1qlQvCySW64-6" value="" style="edgeStyle=orthogonalEdgeStyle;rounded=0;orthogonalLoop=1;jettySize=auto;html=1;" edge="1" parent="1" source="tKUG0jFUz1qlQvCySW64-3" target="tKUG0jFUz1qlQvCySW64-5">
          <mxGeometry relative="1" as="geometry" />
        </mxCell>
        <mxCell id="tKUG0jFUz1qlQvCySW64-11" style="edgeStyle=orthogonalEdgeStyle;rounded=0;orthogonalLoop=1;jettySize=auto;html=1;" edge="1" parent="1" source="tKUG0jFUz1qlQvCySW64-3" target="tKUG0jFUz1qlQvCySW64-9">
          <mxGeometry relative="1" as="geometry">
            <Array as="points">
              <mxPoint x="370" y="260" />
              <mxPoint x="520" y="260" />
            </Array>
          </mxGeometry>
        </mxCell>
        <mxCell id="tKUG0jFUz1qlQvCySW64-12" value="" style="edgeStyle=orthogonalEdgeStyle;rounded=0;orthogonalLoop=1;jettySize=auto;html=1;" edge="1" parent="1" source="tKUG0jFUz1qlQvCySW64-3" target="tKUG0jFUz1qlQvCySW64-8">
          <mxGeometry relative="1" as="geometry" />
        </mxCell>
        <mxCell id="tKUG0jFUz1qlQvCySW64-3" value="模态分析" style="rounded=1;whiteSpace=wrap;html=1;" vertex="1" parent="1">
          <mxGeometry x="290" y="180" width="120" height="30" as="geometry" />
        </mxCell>
        <mxCell id="tKUG0jFUz1qlQvCySW64-5" value="函数综合" style="rounded=1;whiteSpace=wrap;html=1;" vertex="1" parent="1">
          <mxGeometry x="290" y="330" width="120" height="30" as="geometry" />
        </mxCell>
        <mxCell id="tKUG0jFUz1qlQvCySW64-13" value="" style="edgeStyle=orthogonalEdgeStyle;rounded=0;orthogonalLoop=1;jettySize=auto;html=1;" edge="1" parent="1" source="tKUG0jFUz1qlQvCySW64-7" target="tKUG0jFUz1qlQvCySW64-8">
          <mxGeometry relative="1" as="geometry" />
        </mxCell>
        <mxCell id="tKUG0jFUz1qlQvCySW64-7" value="三维建模" style="rounded=1;whiteSpace=wrap;html=1;" vertex="1" parent="1">
          <mxGeometry x="470" y="100" width="120" height="30" as="geometry" />
        </mxCell>
        <mxCell id="tKUG0jFUz1qlQvCySW64-16" style="edgeStyle=orthogonalEdgeStyle;rounded=0;orthogonalLoop=1;jettySize=auto;html=1;" edge="1" parent="1" source="tKUG0jFUz1qlQvCySW64-8" target="tKUG0jFUz1qlQvCySW64-9">
          <mxGeometry relative="1" as="geometry">
            <Array as="points">
              <mxPoint x="530" y="250" />
              <mxPoint x="530" y="250" />
            </Array>
          </mxGeometry>
        </mxCell>
        <mxCell id="tKUG0jFUz1qlQvCySW64-8" value="振动仿真" style="rounded=1;whiteSpace=wrap;html=1;" vertex="1" parent="1">
          <mxGeometry x="470" y="180" width="120" height="30" as="geometry" />
        </mxCell>
        <mxCell id="tKUG0jFUz1qlQvCySW64-9" value="模态置信准则" style="rounded=1;whiteSpace=wrap;html=1;" vertex="1" parent="1">
          <mxGeometry x="470" y="330" width="120" height="30" as="geometry" />
        </mxCell>
      </root>
    </mxGraphModel>
  </diagram>
</mxfile>
